<?xml version="1.0" encoding="utf-8"?>
<!-- Generator: Adobe Illustrator 17.0.0, SVG Export Plug-In . SVG Version: 6.00 Build 0)  -->
<!DOCTYPE svg PUBLIC "-//W3C//DTD SVG 1.1//EN" "http://www.w3.org/Graphics/SVG/1.1/DTD/svg11.dtd">
<svg version="1.1" id="图层_1" xmlns="http://www.w3.org/2000/svg" xmlns:xlink="http://www.w3.org/1999/xlink" x="0px" y="0px"
	 width="64px" height="64px" viewBox="0 0 64 64" enable-background="new 0 0 64 64" xml:space="preserve">
<circle fill="#3A94B9" cx="32" cy="32" r="32"/>
<path fill="#FFFFFF" d="M51.19,43.188c-0.873,0.455-2.239-0.582-3.523-2.493c-0.508,2.075-1.769,3.956-3.56,5.471
	c1.881,0.694,3.112,1.836,3.112,3.12c0,2.112-3.329,3.829-7.434,3.829c-3.702,0-6.777-1.396-7.344-3.217h-0.888
	c-0.567,1.829-3.635,3.217-7.337,3.217c-4.105,0-7.434-1.709-7.434-3.829c0-1.284,1.231-2.426,3.112-3.12
	c-1.799-1.508-3.053-3.388-3.56-5.471c-1.284,1.911-2.65,2.948-3.53,2.493c-1.269-0.664-1.008-4.209,0.567-7.926
	c1.239-2.918,2.926-5.075,4.202-5.545c-0.015-0.187-0.022-0.373-0.022-0.56c0-1.127,0.313-2.172,0.843-3.023
	c0-0.067-0.007-0.134-0.007-0.202c0-0.515,0.119-1.008,0.336-1.426c0.321-7.59,5.269-13.621,13.27-13.621s12.942,6.031,13.27,13.621
	c0.209,0.418,0.336,0.911,0.336,1.426c0,0.067,0,0.134-0.007,0.202c0.537,0.851,0.851,1.896,0.851,3.023
	c0,0.187-0.007,0.373-0.03,0.56c1.284,0.478,2.97,2.627,4.209,5.545C52.213,38.971,52.459,42.524,51.19,43.188L51.19,43.188z"/>
</svg>
