<?xml version="1.0" encoding="utf-8"?>
<!-- Generator: Adobe Illustrator 17.0.0, SVG Export Plug-In . SVG Version: 6.00 Build 0)  -->
<!DOCTYPE svg PUBLIC "-//W3C//DTD SVG 1.1//EN" "http://www.w3.org/Graphics/SVG/1.1/DTD/svg11.dtd">
<svg version="1.1" id="图层_1" xmlns="http://www.w3.org/2000/svg" xmlns:xlink="http://www.w3.org/1999/xlink" x="0px" y="0px"
	 width="64px" height="64px" viewBox="0 0 64 64" enable-background="new 0 0 64 64" xml:space="preserve">
<circle fill="#41A637" cx="32" cy="32" r="32"/>
<g>
	<path fill="#FFFFFF" d="M39.816,24.89c0.508,0,1.008,0.039,1.511,0.094C39.973,18.681,33.237,14,25.546,14
		c-8.597,0-15.64,5.858-15.64,13.301c0,4.295,2.342,7.821,6.258,10.561l-1.563,4.703l5.468-2.74
		c1.955,0.384,3.524,0.782,5.477,0.782c0.492,0,0.978-0.022,1.458-0.058c-0.304-1.047-0.483-2.14-0.483-3.281
		C26.523,30.435,32.389,24.89,39.816,24.89L39.816,24.89z M31.409,20.65c1.182,0,1.958,0.776,1.958,1.953
		c0,1.171-0.776,1.955-1.958,1.955c-1.168,0-2.345-0.784-2.345-1.955C29.064,21.424,30.238,20.65,31.409,20.65L31.409,20.65z
		 M20.464,24.558c-1.174,0-2.356-0.784-2.356-1.955c0-1.177,1.182-1.953,2.356-1.953s1.953,0.773,1.953,1.953
		C22.417,23.774,21.638,24.558,20.464,24.558L20.464,24.558z"/>
	<path fill="#FFFFFF" d="M54.094,37.08c0-6.253-6.258-11.348-13.287-11.348c-7.443,0-13.301,5.098-13.301,11.348
		c0,6.269,5.861,11.348,13.301,11.348c1.558,0,3.129-0.389,4.692-0.782L49.789,50l-1.177-3.911
		C51.752,43.731,54.094,40.607,54.094,37.08L54.094,37.08z M36.493,35.122c-0.776,0-1.563-0.773-1.563-1.563
		c0-0.779,0.787-1.563,1.563-1.563c1.188,0,1.958,0.784,1.958,1.563C38.452,34.349,37.681,35.122,36.493,35.122L36.493,35.122z
		 M45.096,35.122c-0.771,0-1.555-0.773-1.555-1.563c0-0.779,0.782-1.563,1.555-1.563c1.177,0,1.958,0.784,1.958,1.563
		C47.055,34.349,46.273,35.122,45.096,35.122L45.096,35.122z"/>
</g>
</svg>
